# xmcd
#
# Track frame offsets:
#	165
#	16230
#	29414
#	43437
#	62615
#	78166
#	94566
#	109756
#	126001
#	137622
#	154401
#	168502
#
# Disc length: 2433 seconds
#
# Revision: 0
# Processed by: cddbd v1.5PL3 Copyright (c) Steve Scherf et al.
# Submitted via: dBpowerAMP V4.0
#
DISCID=97097f0c
DTITLE=Bruno and Marrone - Acorrentado em Você
DYEAR=1997
DGENRE=Sertanejo
TTITLE0=Acorrentado em Você
TTITLE1=Alçapão
TTITLE2=Apenas Um Sorriso
TTITLE3=Vem Me Buscar
TTITLE4=Tá Combinado Assim
TTITLE5=Te Amo e Não Te Quero
TTITLE6=Qual é a Sua
TTITLE7=Me Deixa Entrar
TTITLE8=O Campeão
TTITLE9=Seu Coração Machuca o Meu
TTITLE10=Rei do Rodeio
TTITLE11=O Que A Saudade Faz
EXTD=
EXTT0=
EXTT1=
EXTT2=
EXTT3=
EXTT4=
EXTT5=
EXTT6=
EXTT7=
EXTT8=
EXTT9=
EXTT10=
EXTT11=
PLAYORDER=
